<svg width="128" height="128" viewBox="0 0 128 128" xmlns="http://www.w3.org/2000/svg" xmlns:xlink="http://www.w3.org/1999/xlink">
    <defs>
        <linearGradient x1="50%" y1="0%" x2="50%" y2="100%" id="a">
            <stop stop-color="#41D1FF" offset="0%"/>
            <stop stop-color="#BD34FE" offset="100%"/>
        </linearGradient>
        <linearGradient x1="50%" y1="0%" x2="50%" y2="100%" id="b">
            <stop stop-color="#FFEA83" offset="0%"/>
            <stop stop-color="#FFDD35" offset="100%"/>
        </linearGradient>
    </defs>
    <g fill="none" fill-rule="evenodd">
        <path d="M25.558 128c-3.453 0-6.25-2.797-6.25-6.25V85.737c0-2.13.845-4.172 2.344-5.67L68.5 33.219l41.07 41.07c1.499 1.5 2.343 3.54 2.343 5.67V121.75c0 3.453-2.797 6.25-6.25 6.25H25.558z" fill="url(#a)"/>
        <path d="M68.5 0C59.804 0 52.25 7.554 52.25 16.25v36.01L11.18 93.33c-1.499 1.5-2.344 3.54-2.344 5.67V121.75c0 3.453 2.797 6.25 6.25 6.25h8.816c3.453 0 6.25-2.797 6.25-6.25v-22.18l48.348-48.348V16.25c0-3.453 2.797-6.25 6.25-6.25h22.18c3.453 0 6.25 2.797 6.25 6.25a6.25 6.25 0 0 1-6.25 6.25H81.125v28.348L40.055 91.92v23.58c0 3.453-2.797 6.25-6.25 6.25H25.558c-3.453 0-6.25-2.797-6.25-6.25V99l51.07-51.07V16.25c0-8.696 7.554-16.25 16.25-16.25h36.01C120.446 0 128 7.554 128 16.25v36.01c0 8.696-7.554 16.25-16.25 16.25h-3.58l-48.348 48.348v8.816c0 3.453-2.797 6.25-6.25 6.25H25.558c-3.453 0-6.25-2.797-6.25-6.25s2.797-6.25 6.25-6.25h22.18L88.808 68.5H16.25C7.554 68.5 0 60.946 0 52.25V16.25C0 7.554 7.554 0 16.25 0H68.5z" fill="url(#b)"/>
    </g>
</svg>
